<svg xmlns="http://www.w3.org/2000/svg" version="1.1" xmlns:xlink="http://www.w3.org/1999/xlink" xmlns:svgjs="http://svgjs.dev/svgjs" width="2000" height="505" viewBox="0 0 2000 505"><g transform="matrix(1,0,0,1,-1.2121212121212466,-0.20099118610139044)"><svg viewBox="0 0 396 100" data-background-color="#0a1627" preserveAspectRatio="xMidYMid meet" height="505" width="2000" xmlns="http://www.w3.org/2000/svg" xmlns:xlink="http://www.w3.org/1999/xlink"><g id="tight-bounds" transform="matrix(1,0,0,1,0.2400000000000091,0.03980023487156359)"><svg viewBox="0 0 395.52 98.70041043998057" height="98.70041043998057" width="395.52"><g><svg viewBox="0 0 540.7269670033095 134.93621960758617" height="98.70041043998057" width="395.52"><g transform="matrix(1,0,0,1,145.20696700330956,18.64892760133789)"><svg viewBox="0 0 395.52 97.63836440491039" height="97.63836440491039" width="395.52"><g id="textblocktransform"><svg viewBox="0 0 395.52 97.63836440491039" height="97.63836440491039" width="395.52" id="textblock"><g><svg viewBox="0 0 395.52 64.96951998539879" height="64.96951998539879" width="395.52"><g transform="matrix(1,0,0,1,0,0)"><svg width="395.52" viewBox="1.9 -33.9 273.92 45" height="64.96951998539879" data-palette-color="#3d9970"><path d="M13.55-21.4L13.55-21.4Q14.35-21.4 15.45-21.23 16.55-21.05 16.9-20.9L16.9-20.9Q17.15-20.9 17.15-21.9L17.15-21.9 17.15-27.25Q17.15-27.8 17.13-28.58 17.1-29.35 16.9-29.8L16.9-29.8Q16.7-30.35 15.8-30.5 14.9-30.65 13.9-30.65L13.9-30.65Q13.85-30.65 13.83-31.28 13.8-31.9 13.95-31.95L13.95-31.95Q15.8-32.15 17.57-32.68 19.35-33.2 20.9-33.9L20.9-33.9Q21.1-33.9 21.28-33.63 21.45-33.35 21.45-33.1L21.45-33.1Q21.45-33.1 21.18-32 20.9-30.9 20.9-28.85L20.9-28.85 20.9-7.95Q20.9-6.55 20.98-5.13 21.05-3.7 21.25-3.15L21.25-3.15Q21.5-2.6 22.43-2.48 23.35-2.35 23.85-2.3L23.85-2.3Q24.05-2.3 24.1-2.3L24.1-2.3Q24.2-2.25 24.23-2.02 24.25-1.8 24.25-1.7L24.25-1.7Q24.25-1.65 24.18-1.33 24.1-1 23.9-1L23.9-1Q22.65-0.95 21.18-0.6 19.7-0.25 18.65 0.08 17.6 0.4 17.55 0.4L17.55 0.4Q17.35 0.4 17.25 0.05 17.15-0.3 17.15-0.55L17.15-0.55 17.15-2.25Q17.15-2.7 17-2.55L17-2.55Q16.65-2.15 15.53-1.45 14.4-0.75 13.05-0.18 11.7 0.4 10.5 0.4L10.5 0.4Q8.3 0.4 6.33-0.98 4.35-2.35 3.13-4.73 1.9-7.1 1.9-10.05L1.9-10.05Q1.9-12.45 3.08-14.53 4.25-16.6 6.08-18.13 7.9-19.65 9.9-20.53 11.9-21.4 13.55-21.4ZM11.95-19.35L11.95-19.35Q10.1-19.35 8.78-18.18 7.45-17 6.73-15.15 6-13.3 6-11.25L6-11.25Q6-8.95 6.8-7 7.6-5.05 9.15-3.85 10.7-2.65 12.9-2.65L12.9-2.65Q14.55-2.65 15.85-3.33 17.15-4 17.15-4.6L17.15-4.6 17.15-16.95Q17.15-17.8 15.58-18.57 14-19.35 11.95-19.35ZM30.5-12.1L30.5-12.1Q30.45-9 31.55-6.9 32.65-4.8 34.5-3.78 36.35-2.75 38.5-2.75L38.5-2.75Q39.85-2.75 40.95-3.23 42.05-3.7 42.8-4.33 43.55-4.95 43.85-5.3L43.85-5.3Q43.9-5.3 44.07-5.13 44.25-4.95 44.25-4.65L44.25-4.65Q44.25-4.25 43.95-3.75L43.95-3.75Q43.5-3.05 42.55-2.08 41.6-1.1 40.15-0.35 38.7 0.4 36.8 0.4L36.8 0.4Q33.95 0.4 31.75-0.95 29.55-2.3 28.3-4.6 27.05-6.9 27.05-9.75L27.05-9.75Q27.05-12.2 27.92-14.33 28.8-16.45 30.22-18.03 31.65-19.6 33.35-20.5 35.05-21.4 36.65-21.4L36.65-21.4Q38.85-21.4 40.27-20.65 41.7-19.9 42.52-18.8 43.35-17.7 43.67-16.6 44-15.5 44-14.75L44-14.75Q44-13.7 43.75-13.1 43.5-12.5 42.8-12.45L42.8-12.45Q42.35-12.4 41.02-12.38 39.7-12.35 38-12.3 36.3-12.25 34.65-12.2 33-12.15 31.85-12.13 30.7-12.1 30.5-12.1ZM30.75-13.9L30.75-13.9 38.7-13.9Q39.15-13.9 39.47-14.15 39.8-14.4 39.85-15.05L39.85-15.05Q39.9-15.65 39.5-16.75 39.1-17.85 38.22-18.75 37.35-19.65 35.85-19.65L35.85-19.65Q34.3-19.65 33.3-18.78 32.3-17.9 31.72-16.78 31.15-15.65 30.92-14.78 30.7-13.9 30.75-13.9ZM51.45-12.1L51.45-12.1Q51.4-9 52.5-6.9 53.59-4.8 55.45-3.78 57.3-2.75 59.45-2.75L59.45-2.75Q60.8-2.75 61.9-3.23 63-3.7 63.75-4.33 64.5-4.95 64.8-5.3L64.8-5.3Q64.84-5.3 65.02-5.13 65.2-4.95 65.2-4.65L65.2-4.65Q65.2-4.25 64.9-3.75L64.9-3.75Q64.45-3.05 63.5-2.08 62.55-1.1 61.09-0.35 59.65 0.4 57.75 0.4L57.75 0.4Q54.9 0.4 52.7-0.95 50.5-2.3 49.25-4.6 48-6.9 48-9.75L48-9.75Q48-12.2 48.87-14.33 49.75-16.45 51.17-18.03 52.59-19.6 54.3-20.5 56-21.4 57.59-21.4L57.59-21.4Q59.8-21.4 61.22-20.65 62.65-19.9 63.47-18.8 64.3-17.7 64.62-16.6 64.95-15.5 64.95-14.75L64.95-14.75Q64.95-13.7 64.7-13.1 64.45-12.5 63.75-12.45L63.75-12.45Q63.3-12.4 61.97-12.38 60.65-12.35 58.95-12.3 57.25-12.25 55.59-12.2 53.95-12.15 52.8-12.13 51.65-12.1 51.45-12.1ZM51.7-13.9L51.7-13.9 59.65-13.9Q60.09-13.9 60.42-14.15 60.75-14.4 60.8-15.05L60.8-15.05Q60.84-15.65 60.45-16.75 60.05-17.85 59.17-18.75 58.3-19.65 56.8-19.65L56.8-19.65Q55.25-19.65 54.25-18.78 53.25-17.9 52.67-16.78 52.09-15.65 51.87-14.78 51.65-13.9 51.7-13.9ZM81.19-21.4L81.19-21.4Q83.44-21.4 85.12-20.45 86.79-19.5 87.87-17.95 88.94-16.4 89.47-14.68 89.99-12.95 89.99-11.35L89.99-11.35Q89.99-9 88.99-6.88 87.99-4.75 86.34-3.13 84.69-1.5 82.67-0.55 80.64 0.4 78.59 0.4L78.59 0.4Q77.64 0.4 76.69 0.23 75.74 0.05 75.14-0.15L75.14-0.15Q75.14-0.15 75.04 0.03 74.94 0.2 74.94 0.5L74.94 0.5 74.94 5.2Q74.94 6.3 74.97 7.28 74.99 8.25 75.19 8.85L75.19 8.85Q75.29 9.1 75.92 9.28 76.54 9.45 77.27 9.53 77.99 9.6 78.29 9.6L78.29 9.6Q78.44 9.8 78.47 10.33 78.49 10.85 78.29 11.05L78.29 11.05Q76.79 10.95 75.64 10.88 74.49 10.8 73.04 10.8L73.04 10.8Q71.64 10.8 70.52 10.88 69.39 10.95 67.89 11.05L67.89 11.05Q67.69 10.85 67.72 10.33 67.74 9.8 67.89 9.6L67.89 9.6Q68.19 9.6 68.89 9.53 69.59 9.45 70.24 9.28 70.89 9.1 70.94 8.85L70.94 8.85Q71.14 8.25 71.17 7.28 71.19 6.3 71.19 5.2L71.19 5.2 71.19-14.75Q71.19-15.25 71.17-16.05 71.14-16.85 70.94-17.3L70.94-17.3Q70.79-17.75 70.09-17.93 69.39-18.1 68.69-18.13 67.99-18.15 67.79-18.15L67.79-18.15Q67.74-18.25 67.69-18.75 67.64-19.25 67.79-19.45L67.79-19.45Q69.69-19.7 71.52-20.2 73.34-20.7 74.79-21.5L74.79-21.5Q74.99-21.5 75.14-21.2 75.29-20.9 75.29-20.7L75.29-20.7Q75.24-20.45 75.09-19.73 74.94-19 74.94-18.7L74.94-18.7Q74.94-18.5 75.04-18.5L75.04-18.5Q75.09-18.5 75.19-18.6L75.19-18.6Q75.79-19.15 76.84-19.8 77.89-20.45 79.07-20.93 80.24-21.4 81.19-21.4ZM79.09-18.5L79.09-18.5Q78.09-18.5 77.14-18.18 76.19-17.85 75.57-17.4 74.94-16.95 74.94-16.6L74.94-16.6 74.94-4.9Q74.94-3.65 75.72-2.85 76.49-2.05 77.57-1.68 78.64-1.3 79.49-1.3L79.49-1.3Q81.54-1.3 82.97-2.53 84.39-3.75 85.14-5.65 85.89-7.55 85.89-9.5L85.89-9.5Q85.89-13.85 83.89-16.18 81.89-18.5 79.09-18.5ZM114.29-27.5L114.29-21.1 120.59-21.1Q120.84-21.1 120.84-20.55L120.84-20.55Q120.84-19.8 120.14-19.1L120.14-19.1 114.29-19.1 114.29-6.3Q114.29-2.3 117.54-2.3L117.54-2.3Q118.64-2.3 119.54-2.75 120.44-3.2 120.69-3.4L120.69-3.4Q120.84-3.35 120.84-3.1L120.84-3.1Q120.84-2.55 120.64-2.35L120.64-2.35Q120.29-1.95 119.56-1.3 118.84-0.65 117.84-0.15 116.84 0.35 115.64 0.35L115.64 0.35Q114.39 0.35 113.21-0.1 112.04-0.55 111.29-1.7 110.54-2.85 110.54-4.95L110.54-4.95 110.54-19.1 107.69-19.1Q107.59-19.1 107.54-19.28 107.49-19.45 107.49-19.55L107.49-19.55Q107.49-19.65 107.79-20.03 108.09-20.4 108.41-20.75 108.74-21.1 108.74-21.1L108.74-21.1 110.54-21.1 110.54-24.15Q111.04-24.7 111.71-25.43 112.39-26.15 112.94-26.78 113.49-27.4 113.54-27.45L113.54-27.45Q113.74-27.65 114.01-27.65 114.29-27.65 114.29-27.5L114.29-27.5ZM136.64-21.4L136.64-21.4Q139.29-21.4 140.64-20.3 141.99-19.2 142.46-16.9 142.94-14.6 142.94-11.05L142.94-11.05 142.94-5.65Q142.94-4.55 142.96-3.6 142.99-2.65 143.19-2.05L143.19-2.05Q143.29-1.8 143.91-1.6 144.54-1.4 145.26-1.33 145.99-1.25 146.29-1.25L146.29-1.25Q146.44-1.05 146.46-0.55 146.49-0.05 146.29 0.15L146.29 0.15Q144.79 0.05 143.64-0.03 142.49-0.1 141.04-0.1L141.04-0.1Q139.64-0.1 138.51-0.03 137.39 0.05 135.89 0.15L135.89 0.15Q135.69-0.05 135.71-0.55 135.74-1.05 135.89-1.25L135.89-1.25Q136.19-1.25 136.89-1.33 137.59-1.4 138.24-1.6 138.89-1.8 138.94-2.05L138.94-2.05Q139.14-2.65 139.16-3.6 139.19-4.55 139.19-5.65L139.19-5.65 139.19-10.55Q139.19-13.6 138.79-15.33 138.39-17.05 137.34-17.8 136.29-18.55 134.39-18.55L134.39-18.55Q133.49-18.55 132.41-17.98 131.34-17.4 130.54-16.75 129.74-16.1 129.74-15.85L129.74-15.85 129.74-5.65Q129.74-4.55 129.76-3.6 129.79-2.65 129.99-2.05L129.99-2.05Q130.09-1.8 130.71-1.6 131.34-1.4 132.06-1.33 132.79-1.25 133.09-1.25L133.09-1.25Q133.24-1.05 133.26-0.55 133.29-0.05 133.09 0.15L133.09 0.15Q131.59 0.05 130.44-0.03 129.29-0.1 127.84-0.1L127.84-0.1Q126.44-0.1 125.31-0.03 124.19 0.05 122.69 0.15L122.69 0.15Q122.49-0.05 122.51-0.55 122.54-1.05 122.69-1.25L122.69-1.25Q122.99-1.25 123.69-1.33 124.39-1.4 125.04-1.6 125.69-1.8 125.74-2.05L125.74-2.05Q125.94-2.65 125.96-3.6 125.99-4.55 125.99-5.65L125.99-5.65 125.99-27.25Q125.99-27.75 125.96-28.55 125.94-29.35 125.74-29.8L125.74-29.8Q125.54-30.35 124.66-30.5 123.79-30.65 122.79-30.65L122.79-30.65Q122.74-30.65 122.71-31.28 122.69-31.9 122.84-31.95L122.84-31.95Q124.69-32.15 126.44-32.68 128.19-33.2 129.74-33.9L129.74-33.9Q129.94-33.9 130.11-33.63 130.29-33.35 130.29-33.1L130.29-33.1Q130.29-33.1 130.01-32 129.74-30.9 129.74-28.85L129.74-28.85 129.74-17.8Q129.74-17.7 129.89-17.7L129.89-17.7Q129.94-17.7 130.04-17.8L130.04-17.8Q130.54-18.35 131.66-19.2 132.79-20.05 134.14-20.73 135.49-21.4 136.64-21.4ZM159.18-21.45L159.18-21.45Q162.43-21.45 164.76-20.05 167.08-18.65 168.36-16.25 169.63-13.85 169.63-10.8L169.63-10.8Q169.63-7.65 168.28-5.13 166.93-2.6 164.58-1.13 162.23 0.35 159.28 0.35L159.28 0.35Q156.08 0.35 153.71-1.07 151.33-2.5 150.06-4.93 148.78-7.35 148.78-10.4L148.78-10.4Q148.78-13.55 150.16-16.05 151.53-18.55 153.88-20 156.23-21.45 159.18-21.45ZM158.63-19.8L158.63-19.8Q156.58-19.8 155.33-18.57 154.08-17.35 153.53-15.43 152.98-13.5 152.98-11.4L152.98-11.4Q152.98-9.05 153.76-6.7 154.53-4.35 156.06-2.8 157.58-1.25 159.78-1.25L159.78-1.25Q161.88-1.25 163.11-2.48 164.33-3.7 164.88-5.65 165.43-7.6 165.43-9.65L165.43-9.65Q165.43-12.05 164.63-14.38 163.83-16.7 162.33-18.25 160.83-19.8 158.63-19.8ZM188.68-5.1L188.68-15.6Q188.68-15.65 188.68-15.8L188.68-15.8Q188.68-16.3 188.63-17.03 188.58-17.75 188.33-18.25L188.33-18.25Q187.98-18.95 187.03-19.1 186.08-19.25 185.58-19.25L185.58-19.25Q185.48-19.35 185.46-19.83 185.43-20.3 185.58-20.5L185.58-20.5Q187.48-20.6 189.23-20.85 190.98-21.1 192.28-21.5L192.28-21.5Q192.48-21.5 192.63-21 192.78-20.5 192.78-20.3L192.78-20.3Q192.63-20 192.56-19.1 192.48-18.2 192.48-17.15L192.48-17.15 192.48-6.9Q192.48-6.5 192.53-5.33 192.58-4.15 192.78-3.15L192.78-3.15Q192.93-2.55 193.91-2.45 194.88-2.35 195.38-2.3L195.38-2.3Q195.63-2.3 195.68-2.3L195.68-2.3Q195.78-2.25 195.81-2.05 195.83-1.85 195.83-1.75L195.83-1.75Q195.83-1.7 195.73-1.35 195.63-1 195.43-1L195.43-1Q194.18-0.95 192.71-0.6 191.23-0.25 190.18 0.08 189.13 0.4 189.08 0.4L189.08 0.4Q188.88 0.4 188.78 0.13 188.68-0.15 188.68-0.4L188.68-0.4 188.68-2.65Q188.68-2.85 188.63-2.88 188.58-2.9 188.58-2.9L188.58-2.9Q187.93-2.2 186.78-1.43 185.63-0.65 184.28-0.15 182.93 0.35 181.68 0.35L181.68 0.35Q179.73 0.35 178.53-0.58 177.33-1.5 176.68-2.98 176.03-4.45 175.81-6.15 175.58-7.85 175.58-9.4L175.58-9.4 175.58-15.6Q175.58-16.1 175.53-16.9 175.48-17.7 175.18-18.25L175.18-18.25Q174.83-18.95 173.88-19.1 172.93-19.25 172.43-19.25L172.43-19.25Q172.33-19.35 172.31-19.83 172.28-20.3 172.43-20.5L172.43-20.5Q174.33-20.6 176.08-20.85 177.83-21.1 179.13-21.5L179.13-21.5Q179.33-21.5 179.51-21.1 179.68-20.7 179.68-20.5L179.68-20.5Q179.53-20.2 179.43-19.2 179.33-18.2 179.33-17.15L179.33-17.15 179.33-9.95Q179.33-6.05 180.51-4.23 181.68-2.4 184.23-2.4L184.23-2.4Q185.33-2.4 186.33-2.83 187.33-3.25 188.01-3.9 188.68-4.55 188.68-5.1L188.68-5.1ZM205.68-3.25L211.43-3.25Q213.38-3.25 215.1-2.55 216.83-1.85 217.9-0.7 218.98 0.45 218.98 1.85L218.98 1.85Q218.98 3.35 217.95 4.95 216.93 6.55 215.18 7.95 213.43 9.35 211.13 10.23 208.83 11.1 206.28 11.1L206.28 11.1Q204.33 11.1 202.38 10.45 200.43 9.8 199.13 8.47 197.83 7.15 197.83 5.15L197.83 5.15Q197.83 4.05 198.78 3.05 199.73 2.05 200.98 1.25 202.23 0.45 203.03 0.05L203.03 0.05Q202.18-0.25 201.25-0.85 200.33-1.45 199.68-2.38 199.03-3.3 199.03-4.5L199.03-4.5Q199.48-5 200.3-5.68 201.13-6.35 201.95-6.95 202.78-7.55 203.23-7.8L203.23-7.8Q201.43-8.8 200.3-10.53 199.18-12.25 199.18-14.05L199.18-14.05Q199.18-16 200.25-17.68 201.33-19.35 203.2-20.4 205.08-21.45 207.43-21.45L207.43-21.45Q209.03-21.45 210.13-21.03 211.23-20.6 211.88-20.35L211.88-20.35Q212.58-20.1 212.6-20.1 212.63-20.1 212.98-20L212.98-20 218.23-20.75Q218.68-20.6 218.68-20.25L218.68-20.25Q218.68-19.95 218.33-19.23 217.98-18.5 217.58-18.25L217.58-18.25Q216.98-18.3 216.23-18.32 215.48-18.35 214.93-18.4 214.38-18.45 214.38-18.45L214.38-18.45Q214.18-18.45 214.18-18.3L214.18-18.3Q214.38-18.1 214.95-16.82 215.53-15.55 215.53-13.85L215.53-13.85Q215.53-12.15 214.45-10.5 213.38-8.85 211.5-7.78 209.63-6.7 207.28-6.7L207.28-6.7Q206.63-6.7 205.78-6.85 204.93-7 204.53-7.15L204.53-7.15Q203.88-6.8 203.3-6.2 202.73-5.6 202.73-5L202.73-5Q202.73-4.65 203.48-3.95 204.23-3.25 205.68-3.25L205.68-3.25ZM209.18 0.2L209.18 0.2Q208.73 0.2 207.7 0.23 206.68 0.25 205.75 0.3 204.83 0.35 204.63 0.45L204.63 0.45Q203.83 0.95 202.78 1.85 201.73 2.75 201.73 3.7L201.73 3.7Q201.73 6.05 203.43 7.63 205.13 9.2 208.23 9.2L208.23 9.2Q209.93 9.2 211.63 8.45 213.33 7.7 214.48 6.5 215.63 5.3 215.63 3.95L215.63 3.95Q215.63 3.25 214.98 2.38 214.33 1.5 212.93 0.85 211.53 0.2 209.18 0.2ZM207.23-19.95L207.23-19.95Q205.83-19.95 204.88-19.1 203.93-18.25 203.43-16.95 202.93-15.65 202.93-14.25L202.93-14.25Q202.93-12.75 203.48-11.35 204.03-9.95 205.08-9.05 206.13-8.15 207.63-8.15L207.63-8.15Q208.98-8.15 209.9-8.97 210.83-9.8 211.3-11.08 211.78-12.35 211.78-13.7L211.78-13.7Q211.78-15.25 211.28-16.68 210.78-18.1 209.78-19.03 208.78-19.95 207.23-19.95ZM234.48-21.4L234.48-21.4Q237.13-21.4 238.48-20.3 239.83-19.2 240.3-16.9 240.78-14.6 240.78-11.05L240.78-11.05 240.78-5.65Q240.78-4.55 240.8-3.6 240.83-2.65 241.03-2.05L241.03-2.05Q241.13-1.8 241.75-1.6 242.38-1.4 243.1-1.33 243.83-1.25 244.13-1.25L244.13-1.25Q244.28-1.05 244.3-0.55 244.33-0.05 244.13 0.15L244.13 0.15Q242.63 0.05 241.48-0.03 240.33-0.1 238.88-0.1L238.88-0.1Q237.48-0.1 236.35-0.03 235.23 0.05 233.73 0.15L233.73 0.15Q233.53-0.05 233.55-0.55 233.58-1.05 233.73-1.25L233.73-1.25Q234.03-1.25 234.73-1.33 235.43-1.4 236.08-1.6 236.73-1.8 236.78-2.05L236.78-2.05Q236.98-2.65 237-3.6 237.03-4.55 237.03-5.65L237.03-5.65 237.03-10.55Q237.03-13.6 236.63-15.33 236.23-17.05 235.18-17.8 234.13-18.55 232.23-18.55L232.23-18.55Q231.33-18.55 230.25-17.98 229.18-17.4 228.38-16.75 227.58-16.1 227.58-15.85L227.58-15.85 227.58-5.65Q227.58-4.55 227.6-3.6 227.63-2.65 227.83-2.05L227.83-2.05Q227.93-1.8 228.55-1.6 229.18-1.4 229.9-1.33 230.63-1.25 230.93-1.25L230.93-1.25Q231.08-1.05 231.1-0.55 231.13-0.05 230.93 0.15L230.93 0.15Q229.43 0.05 228.28-0.03 227.13-0.1 225.68-0.1L225.68-0.1Q224.28-0.1 223.15-0.03 222.03 0.05 220.53 0.15L220.53 0.15Q220.33-0.05 220.35-0.55 220.38-1.05 220.53-1.25L220.53-1.25Q220.83-1.25 221.53-1.33 222.23-1.4 222.88-1.6 223.53-1.8 223.58-2.05L223.58-2.05Q223.78-2.65 223.8-3.6 223.83-4.55 223.83-5.65L223.83-5.65 223.83-27.25Q223.83-27.75 223.8-28.55 223.78-29.35 223.58-29.8L223.58-29.8Q223.38-30.35 222.5-30.5 221.63-30.65 220.63-30.65L220.63-30.65Q220.58-30.65 220.55-31.28 220.53-31.9 220.68-31.95L220.68-31.95Q222.53-32.15 224.28-32.68 226.03-33.2 227.58-33.9L227.58-33.9Q227.78-33.9 227.95-33.63 228.13-33.35 228.13-33.1L228.13-33.1Q228.13-33.1 227.85-32 227.58-30.9 227.58-28.85L227.58-28.85 227.58-17.8Q227.58-17.7 227.73-17.7L227.73-17.7Q227.78-17.7 227.88-17.8L227.88-17.8Q228.38-18.35 229.5-19.2 230.63-20.05 231.98-20.73 233.33-21.4 234.48-21.4ZM252.42-27.5L252.42-21.1 258.72-21.1Q258.97-21.1 258.97-20.55L258.97-20.55Q258.97-19.8 258.27-19.1L258.27-19.1 252.42-19.1 252.42-6.3Q252.42-2.3 255.67-2.3L255.67-2.3Q256.77-2.3 257.67-2.75 258.57-3.2 258.82-3.4L258.82-3.4Q258.97-3.35 258.97-3.1L258.97-3.1Q258.97-2.55 258.77-2.35L258.77-2.35Q258.42-1.95 257.7-1.3 256.97-0.65 255.97-0.15 254.97 0.35 253.77 0.35L253.77 0.35Q252.52 0.35 251.35-0.1 250.17-0.55 249.42-1.7 248.67-2.85 248.67-4.95L248.67-4.95 248.67-19.1 245.82-19.1Q245.72-19.1 245.67-19.28 245.62-19.45 245.62-19.55L245.62-19.55Q245.62-19.65 245.92-20.03 246.22-20.4 246.55-20.75 246.87-21.1 246.87-21.1L246.87-21.1 248.67-21.1 248.67-24.15Q249.17-24.7 249.85-25.43 250.52-26.15 251.07-26.78 251.62-27.4 251.67-27.45L251.67-27.45Q251.87-27.65 252.15-27.65 252.42-27.65 252.42-27.5L252.42-27.5ZM269.27-21.35L269.27-21.35Q270.72-21.35 271.7-21.13 272.67-20.9 274.27-20.7L274.27-20.7Q274.52-19.6 274.67-18.13 274.82-16.65 274.87-15.35L274.87-15.35Q274.87-15.1 274.37-15.1L274.37-15.1Q274.17-15.1 273.95-15.15 273.72-15.2 273.52-15.35L273.52-15.35Q273.27-16.25 272.7-17.3 272.12-18.35 271.3-19.07 270.47-19.8 269.42-19.8L269.42-19.8Q267.67-19.8 266.82-18.93 265.97-18.05 265.97-16.75L265.97-16.75Q265.97-15.5 266.57-14.73 267.17-13.95 268.15-13.38 269.12-12.8 270.22-12.15L270.22-12.15Q271.32-11.5 272.62-10.7 273.92-9.9 274.87-8.83 275.82-7.75 275.82-6.2L275.82-6.2Q275.82-4.25 274.77-2.73 273.72-1.2 272.02-0.33 270.32 0.55 268.32 0.55L268.32 0.55Q266.62 0.55 265.42 0.23 264.22-0.1 262.62-0.4L262.62-0.4Q262.42-0.95 262.22-1.9 262.02-2.85 261.9-3.85 261.77-4.85 261.77-5.45L261.77-5.45Q262.17-5.75 262.67-5.75L262.67-5.75Q262.92-5.75 263.07-5.65L263.07-5.65Q263.37-4.65 264.12-3.58 264.87-2.5 265.97-1.78 267.07-1.05 268.37-1.05L268.37-1.05Q269.87-1.05 270.87-1.95 271.87-2.85 271.87-4.55L271.87-4.55Q271.87-6.05 270.97-6.98 270.07-7.9 268.72-8.63 267.37-9.35 265.92-10.15L265.92-10.15Q264.47-11 263.35-12.23 262.22-13.45 262.22-15.4L262.22-15.4Q262.22-17.2 263.25-18.55 264.27-19.9 265.87-20.63 267.47-21.35 269.27-21.35Z" opacity="1" transform="matrix(1,0,0,1,0,0)" fill="#3d9970" class="wordmark-text-0" data-fill-palette-color="primary" id="text-0"></path></svg></g></svg></g><g transform="matrix(1,0,0,1,0,80.3072643854718)"><svg viewBox="0 0 232.209792 17.3311000194386" height="17.3311000194386" width="232.209792"><g transform="matrix(1,0,0,1,0,0)"><svg width="232.209792" viewBox="2.44 -37.94 673.13 50.239999999999995" height="17.3311000194386" data-palette-color="#c1c1c1"><path d="M6.05-2.78L6.05-2.78Q4.2-4.88 3.32-7.96 2.44-11.04 2.44-14.16L2.44-14.16Q2.44-17.97 3.49-20.56 4.54-23.14 6.2-24.76 7.86-26.37 9.89-27.08 11.91-27.78 13.87-27.78L13.87-27.78Q16.26-27.78 18.24-26.95 20.21-26.12 21.19-24.76L21.19-24.76 21.19-37.94 27.15-37.94 27.15 0 21.53 0Q21.44-0.83 21.36-1.68 21.29-2.54 21.19-3.27L21.19-3.27Q21.04-2.64 20.34-2 19.63-1.37 18.53-0.85 17.43-0.34 16.06-0.05 14.7 0.24 13.23 0.24L13.23 0.24Q11.28 0.24 9.4-0.44 7.52-1.12 6.05-2.78ZM8.69-13.72L8.69-13.72Q8.69-11.77 9.18-10.08 9.67-8.4 10.5-7.13 11.33-5.86 12.52-5.13 13.72-4.39 15.14-4.39L15.14-4.39Q16.65-4.39 17.85-5.15 19.04-5.91 19.87-7.18 20.7-8.45 21.14-10.16 21.58-11.87 21.58-13.82L21.58-13.82Q21.58-15.77 21.12-17.48 20.65-19.19 19.8-20.46 18.95-21.73 17.75-22.49 16.55-23.24 15.04-23.24L15.04-23.24Q13.53-23.24 12.35-22.49 11.18-21.73 10.38-20.41 9.57-19.09 9.13-17.38 8.69-15.67 8.69-13.72ZM47.02-27.83L47.02-27.83Q50.34-27.83 52.88-26.49 55.42-25.15 57.05-22.92 58.69-20.7 59.4-17.8 60.1-14.89 59.67-11.77L59.67-11.77 40.52-11.77Q40.52-10.21 41.11-8.89 41.7-7.57 42.7-6.62 43.7-5.66 45.09-5.13 46.48-4.59 48.09-4.59L48.09-4.59Q48.63-4.59 49.44-4.71 50.24-4.83 51.14-5.15 52.05-5.47 52.95-5.96 53.85-6.45 54.54-7.13L54.54-7.13 56.69-3.86Q55.08-1.86 52.93-0.83 50.78 0.2 47.46 0.2L47.46 0.2Q44.77 0.2 42.43-0.9 40.09-2 38.43-3.91 36.77-5.81 35.79-8.35 34.81-10.89 34.81-13.82L34.81-13.82Q34.81-16.7 35.79-19.26 36.77-21.83 38.4-23.73 40.04-25.63 42.28-26.73 44.53-27.83 47.02-27.83ZM40.72-16.06L54.2-16.06Q54.2-17.38 53.71-18.65 53.22-19.92 52.37-20.95 51.51-21.97 50.29-22.58 49.07-23.19 47.65-23.24L47.65-23.24Q46.14-23.24 44.87-22.66 43.6-22.07 42.67-21.09 41.75-20.12 41.23-18.77 40.72-17.43 40.72-16.06L40.72-16.06ZM79.44-27.83L79.44-27.83Q82.76-27.83 85.3-26.49 87.84-25.15 89.47-22.92 91.11-20.7 91.82-17.8 92.52-14.89 92.08-11.77L92.08-11.77 72.94-11.77Q72.94-10.21 73.53-8.89 74.12-7.57 75.12-6.62 76.12-5.66 77.51-5.13 78.9-4.59 80.51-4.59L80.51-4.59Q81.05-4.59 81.86-4.71 82.66-4.83 83.56-5.15 84.47-5.47 85.37-5.96 86.27-6.45 86.96-7.13L86.96-7.13 89.11-3.86Q87.5-1.86 85.35-0.83 83.2 0.2 79.88 0.2L79.88 0.2Q77.19 0.2 74.85-0.9 72.5-2 70.84-3.91 69.18-5.81 68.21-8.35 67.23-10.89 67.23-13.82L67.23-13.82Q67.23-16.7 68.21-19.26 69.18-21.83 70.82-23.73 72.46-25.63 74.7-26.73 76.95-27.83 79.44-27.83ZM73.14-16.06L86.62-16.06Q86.62-17.38 86.13-18.65 85.64-19.92 84.79-20.95 83.93-21.97 82.71-22.58 81.49-23.19 80.07-23.24L80.07-23.24Q78.56-23.24 77.29-22.66 76.02-22.07 75.09-21.09 74.16-20.12 73.65-18.77 73.14-17.43 73.14-16.06L73.14-16.06ZM124.41-19.19L124.41-19.19Q124.99-16.94 124.99-14.16L124.99-14.16Q124.99-11.38 124.33-8.76 123.67-6.15 122.33-4.15 120.99-2.15 118.96-0.95 116.94 0.24 114.2 0.24L114.2 0.24Q112.74 0.24 111.37-0.05 110-0.34 108.93-0.85 107.85-1.37 107.15-1.98 106.44-2.59 106.29-3.27L106.29-3.27 106.29 10.84 100.33 10.84 100.33-27.54 105.66-27.54 106.29-24.76Q107.27-26.12 109.25-26.95 111.22-27.78 113.62-27.78L113.62-27.78Q115.23-27.78 116.89-27.34 118.55-26.9 119.99-25.88 121.43-24.85 122.6-23.19 123.77-21.53 124.41-19.19ZM112.25-4.35L112.25-4.35Q113.71-4.35 114.91-5.08 116.11-5.81 116.96-7.06 117.81-8.3 118.3-10.03 118.79-11.77 118.79-13.72L118.79-13.72Q118.79-15.63 118.35-17.33 117.91-19.04 117.11-20.36 116.3-21.68 115.15-22.46 114.01-23.24 112.49-23.24L112.49-23.24Q111.03-23.24 109.81-22.51 108.59-21.78 107.71-20.53 106.83-19.29 106.36-17.6 105.9-15.92 105.9-13.96L105.9-13.96Q105.9-12.01 106.32-10.28 106.73-8.54 107.56-7.23 108.39-5.91 109.56-5.13 110.73-4.35 112.25-4.35ZM152.82-23.54L152.82-8.35Q152.82-6.69 153.26-5.76 153.7-4.83 154.5-4.35 155.31-3.86 156.31-3.74 157.31-3.61 158.43-3.61L158.43-3.61 158.43 0Q157.8 0.1 157.17 0.15L157.17 0.15Q156.63 0.2 155.87 0.22 155.11 0.24 154.38 0.24L154.38 0.24Q153.65 0.24 152.89 0.2 152.14 0.15 151.6 0.05L151.6 0.05Q149.94-0.24 149.01-1.39 148.08-2.54 147.62-3.93 147.16-5.32 147.03-6.64 146.91-7.96 146.91-8.69L146.91-8.69 146.91-23.54 143.3-23.54 143.3-27.54 146.91-27.54 146.91-35.35 152.82-35.35 152.82-27.54 157.21-27.54 157.21-23.54 152.82-23.54ZM188.17-0.98L188.17 0 182.21 0 182.21-14.99Q182.21-16.65 182.07-18.16 181.92-19.68 181.38-20.85 180.84-22.02 179.92-22.68 178.99-23.34 177.33-23.34L177.33-23.34Q176.79-23.34 175.94-23.19 175.08-23.05 174.18-22.75 173.28-22.46 172.47-22.02 171.66-21.58 171.27-21L171.27-21 171.27-20.7 171.27-20.61 171.27-9.77 171.27-9.67 171.27 0 165.37 0 165.37-37.94 171.27-37.94 171.27-24.76Q171.86-25.29 172.76-25.85 173.67-26.42 174.74-26.86 175.82-27.29 176.94-27.56 178.06-27.83 179.14-27.83L179.14-27.83Q181.33-27.83 182.85-26.9 184.36-25.98 185.87-24.51L185.87-24.51Q186.7-23.68 187.17-22.58 187.63-21.48 187.85-20.29 188.07-19.09 188.12-17.87 188.17-16.65 188.17-15.48L188.17-15.48 188.17-0.98ZM207.36-27.69L207.36-27.69Q210.19-27.69 212.48-26.59 214.78-25.49 216.39-23.58 218-21.68 218.88-19.14 219.76-16.6 219.76-13.67L219.76-13.67Q219.76-10.74 218.83-8.18 217.9-5.62 216.22-3.74 214.53-1.86 212.21-0.81 209.89 0.24 207.06 0.24L207.06 0.24Q204.18 0.24 201.81-0.83 199.45-1.9 197.81-3.81 196.17-5.71 195.3-8.25 194.42-10.79 194.42-13.77 194.42-16.75 195.37-19.34 196.32-21.92 198-23.75 199.69-25.59 202.08-26.64 204.47-27.69 207.36-27.69ZM206.96-4.39L206.96-4.39Q208.43-4.39 209.63-5.1 210.82-5.81 211.68-7.06 212.53-8.3 213.04-10.01 213.56-11.72 213.56-13.67L213.56-13.67Q213.56-15.63 213.09-17.33 212.63-19.04 211.82-20.34 211.02-21.63 209.85-22.41 208.67-23.19 207.21-23.19L207.21-23.19Q205.74-23.19 204.52-22.46 203.3-21.73 202.45-20.48 201.59-19.24 201.13-17.55 200.67-15.87 200.67-13.92L200.67-13.92Q200.67-11.96 201.08-10.23 201.5-8.5 202.33-7.23 203.16-5.96 204.3-5.18 205.45-4.39 206.96-4.39ZM227.23-26.61L227.23-26.56 227.23-27.54 233.18-27.54 233.18-12.55Q233.18-10.84 233.33-9.35 233.48-7.86 233.96-6.74 234.45-5.62 235.43-4.93 236.41-4.25 238.02-4.25L238.02-4.25Q238.51-4.25 239.38-4.37 240.26-4.49 241.17-4.79 242.07-5.08 242.88-5.52 243.68-5.96 244.07-6.54L244.07-6.54 244.07-6.88 244.07-6.93 244.07-17.87 244.07-17.92 244.07-27.54 250.03-27.54 250.03 0 244.71 0 244.07-2.83Q243.49-2.29 242.61-1.76 241.73-1.22 240.68-0.76 239.63-0.29 238.53-0.02 237.43 0.24 236.36 0.24L236.36 0.24Q235.19 0.24 234.26 0.02 233.33-0.2 232.52-0.66 231.72-1.12 230.99-1.71 230.25-2.29 229.52-3.03L229.52-3.03Q228.69-3.86 228.2-4.96 227.71-6.05 227.49-7.25 227.27-8.45 227.25-9.67 227.23-10.89 227.23-12.06L227.23-12.06 227.23-26.61ZM260.52 6.93L263.94 3.56Q264.43 4.39 265.19 4.93 265.94 5.47 266.75 5.76 267.56 6.05 268.36 6.18 269.17 6.3 269.8 6.3L269.8 6.3Q272.83 6.3 274.54 4.54 276.25 2.78 276.25-1.46L276.25-1.46 276.25-2.73 276.25-2.83 276.3-3.08Q276.3-3.13 276.27-3.17 276.25-3.22 276.25-3.27L276.25-3.27Q276.1-2.64 275.39-2 274.68-1.37 273.61-0.85 272.54-0.34 271.17-0.05 269.8 0.24 268.34 0.24L268.34 0.24Q265.6 0.24 263.55-0.95 261.5-2.15 260.13-4.15 258.77-6.15 258.13-8.74 257.5-11.33 257.5-14.16L257.5-14.16Q257.5-17.97 258.55-20.56 259.6-23.14 261.23-24.78 262.87-26.42 264.89-27.1 266.92-27.78 268.87-27.78L268.87-27.78Q271.27-27.78 273.24-26.95 275.22-26.12 276.25-24.76L276.25-24.76 276.88-27.54 282.16-27.54 282.11 0Q281.91 2.98 280.91 5.08 279.91 7.18 278.35 8.54 276.78 9.91 274.73 10.5 272.68 11.08 270.34 11.08L270.34 11.08Q267.6 11.08 264.94 10.13 262.28 9.18 260.52 6.93L260.52 6.93ZM276.64-13.96L276.64-13.96Q276.64-15.92 276.15-17.58 275.66-19.24 274.83-20.51 274-21.78 272.78-22.51 271.56-23.24 270.14-23.24L270.14-23.24Q268.68-23.24 267.48-22.49 266.29-21.73 265.46-20.46 264.63-19.19 264.19-17.48 263.75-15.77 263.75-13.87L263.75-13.87Q263.75-11.91 264.21-10.18 264.67-8.45 265.53-7.18 266.38-5.91 267.58-5.15 268.78-4.39 270.24-4.39L270.24-4.39Q271.75-4.39 272.93-5.15 274.1-5.91 274.9-7.2 275.71-8.5 276.17-10.25 276.64-12.01 276.64-13.96ZM314.48-0.98L314.48 0 308.52 0 308.52-14.99Q308.52-16.65 308.37-18.16 308.23-19.68 307.69-20.85 307.15-22.02 306.23-22.68 305.3-23.34 303.64-23.34L303.64-23.34Q303.1-23.34 302.25-23.19 301.39-23.05 300.49-22.75 299.58-22.46 298.78-22.02 297.97-21.58 297.58-21L297.58-21 297.58-20.7 297.58-20.61 297.58-9.77 297.58-9.67 297.58 0 291.67 0 291.67-37.94 297.58-37.94 297.58-24.76Q298.17-25.29 299.07-25.85 299.98-26.42 301.05-26.86 302.12-27.29 303.25-27.56 304.37-27.83 305.44-27.83L305.44-27.83Q307.64-27.83 309.15-26.9 310.67-25.98 312.18-24.51L312.18-24.51Q313.01-23.68 313.48-22.58 313.94-21.48 314.16-20.29 314.38-19.09 314.43-17.87 314.48-16.65 314.48-15.48L314.48-15.48 314.48-0.98ZM329.27-23.54L329.27-8.35Q329.27-6.69 329.71-5.76 330.15-4.83 330.95-4.35 331.76-3.86 332.76-3.74 333.76-3.61 334.88-3.61L334.88-3.61 334.88 0Q334.25 0.1 333.62 0.15L333.62 0.15Q333.08 0.2 332.32 0.22 331.56 0.24 330.83 0.24L330.83 0.24Q330.1 0.24 329.34 0.2 328.59 0.15 328.05 0.05L328.05 0.05Q326.39-0.24 325.46-1.39 324.53-2.54 324.07-3.93 323.61-5.32 323.48-6.64 323.36-7.96 323.36-8.69L323.36-8.69 323.36-23.54 319.75-23.54 319.75-27.54 323.36-27.54 323.36-35.35 329.27-35.35 329.27-27.54 333.66-27.54 333.66-23.54 329.27-23.54ZM341.28-2.2L341.28-2.2 343.77-6.15Q344.75-5.47 346.09-4.88 347.43-4.3 349.48-4.3L349.48-4.3Q352.17-4.3 353.68-5.13 355.19-5.96 355.19-7.57L355.19-7.57Q355.19-8.74 354.32-9.45 353.44-10.16 352.09-10.67 350.75-11.18 349.21-11.65 347.68-12.11 346.36-12.79L346.36-12.79Q343.77-14.16 342.47-15.67 341.18-17.19 341.18-19.68L341.18-19.68Q341.18-21.73 342.04-23.29 342.89-24.85 344.26-25.9 345.62-26.95 347.38-27.49 349.14-28.03 350.95-28.03L350.95-28.03Q353.39-28.03 355.44-27.51 357.49-27 359.39-25.78L359.39-25.78 357.49-21.73Q356.02-22.56 354.32-22.88 352.61-23.19 350.95-23.19L350.95-23.19Q349.14-23.19 348.09-22.39 347.04-21.58 347.04-19.87L347.04-19.87Q347.04-18.55 347.99-17.8 348.94-17.04 350.46-16.46 351.97-15.87 353.68-15.28 355.39-14.7 356.88-13.79 358.37-12.89 359.35-11.52 360.32-10.16 360.32-8.01L360.32-8.01Q360.32-5.91 359.49-4.35 358.66-2.78 357.25-1.76 355.83-0.73 353.97-0.24 352.12 0.24 350.02 0.24L350.02 0.24Q348.75 0.24 347.68 0.17 346.6 0.1 345.58-0.15 344.55-0.39 343.52-0.88 342.5-1.37 341.28-2.2ZM405.43-19.19L405.43-19.19Q406.02-16.94 406.02-14.26L406.02-14.26Q406.02-11.47 405.36-8.84 404.7-6.2 403.36-4.17 402.02-2.15 399.99-0.95 397.96 0.24 395.23 0.24L395.23 0.24Q393.76 0.24 392.4-0.05 391.03-0.34 389.93-0.85 388.83-1.37 388.12-1.98 387.42-2.59 387.27-3.27L387.27-3.27Q387.22-2.59 387.12-1.71 387.03-0.83 386.98 0L386.98 0 381.36 0 381.36-37.94 387.27-37.94 387.27-24.76Q388.25-26.12 390.22-26.95 392.2-27.78 394.59-27.78L394.59-27.78Q396.21-27.78 397.87-27.34 399.53-26.9 400.97-25.88 402.41-24.85 403.6-23.19 404.8-21.53 405.43-19.19ZM393.23-4.39L393.23-4.39Q394.69-4.39 395.89-5.13 397.08-5.86 397.94-7.1 398.79-8.35 399.31-10.06 399.82-11.77 399.82-13.72L399.82-13.72Q399.82-15.63 399.35-17.33 398.89-19.04 398.09-20.36 397.28-21.68 396.11-22.46 394.94-23.24 393.47-23.24L393.47-23.24Q392.01-23.24 390.79-22.51 389.56-21.78 388.71-20.53 387.86-19.29 387.39-17.6 386.93-15.92 386.93-13.96L386.93-13.96Q386.93-12.01 387.34-10.28 387.76-8.54 388.59-7.25 389.42-5.96 390.57-5.18 391.71-4.39 393.23-4.39ZM433.26-27.54L439.22-27.54Q436.53-20.36 434.44-14.82 432.34-9.28 430.77-5.1 429.21-0.93 428.01 1.95 426.82 4.83 425.82 6.76 424.82 8.69 423.94 9.79 423.06 10.89 422.13 11.47 421.2 12.06 420.1 12.18 419.01 12.3 417.59 12.3L417.59 12.3Q417.15 12.3 416.56 12.18 415.98 12.06 415.42 11.89 414.86 11.72 414.42 11.55 413.98 11.38 413.83 11.33L413.83 11.33Q414.03 10.45 414.22 9.67L414.22 9.67Q414.37 8.98 414.54 8.37 414.71 7.76 414.81 7.52L414.81 7.52Q415.2 7.52 416 7.76 416.81 8.01 417.2 8.01L417.2 8.01Q417.98 8.01 418.59 7.93 419.2 7.86 419.69 7.5 420.18 7.13 420.62 6.42 421.06 5.71 421.59 4.39L421.59 4.39 423.45 0 412.17-27.54 418.08-27.54 426.13-6.35 433.26-27.54ZM466.71-23.54L466.71-8.35Q466.71-6.69 467.15-5.76 467.58-4.83 468.39-4.35 469.2-3.86 470.2-3.74 471.2-3.61 472.32-3.61L472.32-3.61 472.32 0Q471.69 0.1 471.05 0.15L471.05 0.15Q470.51 0.2 469.76 0.22 469 0.24 468.27 0.24L468.27 0.24Q467.54 0.24 466.78 0.2 466.02 0.15 465.48 0.05L465.48 0.05Q463.82-0.24 462.9-1.39 461.97-2.54 461.51-3.93 461.04-5.32 460.92-6.64 460.8-7.96 460.8-8.69L460.8-8.69 460.8-23.54 457.18-23.54 457.18-27.54 460.8-27.54 460.8-35.35 466.71-35.35 466.71-27.54 471.1-27.54 471.1-23.54 466.71-23.54ZM502.05-0.98L502.05 0 496.1 0 496.1-14.99Q496.1-16.65 495.95-18.16 495.8-19.68 495.27-20.85 494.73-22.02 493.8-22.68 492.87-23.34 491.21-23.34L491.21-23.34Q490.68-23.34 489.82-23.19 488.97-23.05 488.07-22.75 487.16-22.46 486.36-22.02 485.55-21.58 485.16-21L485.16-21 485.16-20.7 485.16-20.61 485.16-9.77 485.16-9.67 485.16 0 479.25 0 479.25-37.94 485.16-37.94 485.16-24.76Q485.75-25.29 486.65-25.85 487.55-26.42 488.63-26.86 489.7-27.29 490.82-27.56 491.95-27.83 493.02-27.83L493.02-27.83Q495.22-27.83 496.73-26.9 498.25-25.98 499.76-24.51L499.76-24.51Q500.59-23.68 501.05-22.58 501.52-21.48 501.74-20.29 501.96-19.09 502.01-17.87 502.05-16.65 502.05-15.48L502.05-15.48 502.05-0.98ZM520.51-27.83L520.51-27.83Q523.83-27.83 526.37-26.49 528.91-25.15 530.54-22.92 532.18-20.7 532.89-17.8 533.6-14.89 533.16-11.77L533.16-11.77 514.02-11.77Q514.02-10.21 514.6-8.89 515.19-7.57 516.19-6.62 517.19-5.66 518.58-5.13 519.97-4.59 521.58-4.59L521.58-4.59Q522.12-4.59 522.93-4.71 523.73-4.83 524.64-5.15 525.54-5.47 526.44-5.96 527.35-6.45 528.03-7.13L528.03-7.13 530.18-3.86Q528.57-1.86 526.42-0.83 524.27 0.2 520.95 0.2L520.95 0.2Q518.26 0.2 515.92-0.9 513.58-2 511.92-3.91 510.26-5.81 509.28-8.35 508.3-10.89 508.3-13.82L508.3-13.82Q508.3-16.7 509.28-19.26 510.26-21.83 511.89-23.73 513.53-25.63 515.77-26.73 518.02-27.83 520.51-27.83ZM514.21-16.06L527.69-16.06Q527.69-17.38 527.2-18.65 526.71-19.92 525.86-20.95 525-21.97 523.78-22.58 522.56-23.19 521.14-23.24L521.14-23.24Q519.63-23.24 518.36-22.66 517.09-22.07 516.16-21.09 515.24-20.12 514.72-18.77 514.21-17.43 514.21-16.06L514.21-16.06ZM556.64-2.78L556.64-2.78Q554.78-4.88 553.9-7.96 553.02-11.04 553.02-14.16L553.02-14.16Q553.02-17.97 554.07-20.56 555.12-23.14 556.78-24.76 558.44-26.37 560.47-27.08 562.5-27.78 564.45-27.78L564.45-27.78Q566.84-27.78 568.82-26.95 570.8-26.12 571.77-24.76L571.77-24.76 571.77-37.94 577.73-37.94 577.73 0 572.12 0Q572.02-0.83 571.94-1.68 571.87-2.54 571.77-3.27L571.77-3.27Q571.63-2.64 570.92-2 570.21-1.37 569.11-0.85 568.01-0.34 566.65-0.05 565.28 0.24 563.81 0.24L563.81 0.24Q561.86 0.24 559.98-0.44 558.1-1.12 556.64-2.78ZM559.27-13.72L559.27-13.72Q559.27-11.77 559.76-10.08 560.25-8.4 561.08-7.13 561.91-5.86 563.11-5.13 564.3-4.39 565.72-4.39L565.72-4.39Q567.23-4.39 568.43-5.15 569.63-5.91 570.46-7.18 571.29-8.45 571.72-10.16 572.16-11.87 572.16-13.82L572.16-13.82Q572.16-15.77 571.7-17.48 571.24-19.19 570.38-20.46 569.53-21.73 568.33-22.49 567.13-23.24 565.62-23.24L565.62-23.24Q564.11-23.24 562.94-22.49 561.76-21.73 560.96-20.41 560.15-19.09 559.71-17.38 559.27-15.67 559.27-13.72ZM597.6-27.83L597.6-27.83Q600.92-27.83 603.46-26.49 606-25.15 607.64-22.92 609.27-20.7 609.98-17.8 610.69-14.89 610.25-11.77L610.25-11.77 591.11-11.77Q591.11-10.21 591.69-8.89 592.28-7.57 593.28-6.62 594.28-5.66 595.67-5.13 597.06-4.59 598.68-4.59L598.68-4.59Q599.21-4.59 600.02-4.71 600.82-4.83 601.73-5.15 602.63-5.47 603.53-5.96 604.44-6.45 605.12-7.13L605.12-7.13 607.27-3.86Q605.66-1.86 603.51-0.83 601.36 0.2 598.04 0.2L598.04 0.2Q595.36 0.2 593.01-0.9 590.67-2 589.01-3.91 587.35-5.81 586.37-8.35 585.39-10.89 585.39-13.82L585.39-13.82Q585.39-16.7 586.37-19.26 587.35-21.83 588.98-23.73 590.62-25.63 592.86-26.73 595.11-27.83 597.6-27.83ZM591.3-16.06L604.78-16.06Q604.78-17.38 604.29-18.65 603.8-19.92 602.95-20.95 602.09-21.97 600.87-22.58 599.65-23.19 598.24-23.24L598.24-23.24Q596.72-23.24 595.45-22.66 594.18-22.07 593.26-21.09 592.33-20.12 591.82-18.77 591.3-17.43 591.3-16.06L591.3-16.06ZM630.02-27.83L630.02-27.83Q633.34-27.83 635.88-26.49 638.42-25.15 640.05-22.92 641.69-20.7 642.4-17.8 643.11-14.89 642.67-11.77L642.67-11.77 623.53-11.77Q623.53-10.21 624.11-8.89 624.7-7.57 625.7-6.62 626.7-5.66 628.09-5.13 629.48-4.59 631.09-4.59L631.09-4.59Q631.63-4.59 632.44-4.71 633.24-4.83 634.15-5.15 635.05-5.47 635.95-5.96 636.86-6.45 637.54-7.13L637.54-7.13 639.69-3.86Q638.08-1.86 635.93-0.83 633.78 0.2 630.46 0.2L630.46 0.2Q627.77 0.2 625.43-0.9 623.09-2 621.43-3.91 619.77-5.81 618.79-8.35 617.81-10.89 617.81-13.82L617.81-13.82Q617.81-16.7 618.79-19.26 619.77-21.83 621.4-23.73 623.04-25.63 625.28-26.73 627.53-27.83 630.02-27.83ZM623.72-16.06L637.2-16.06Q637.2-17.38 636.71-18.65 636.22-19.92 635.37-20.95 634.51-21.97 633.29-22.58 632.07-23.19 630.66-23.24L630.66-23.24Q629.14-23.24 627.87-22.66 626.6-22.07 625.67-21.09 624.75-20.12 624.23-18.77 623.72-17.43 623.72-16.06L623.72-16.06ZM674.99-19.19L674.99-19.19Q675.57-16.94 675.57-14.16L675.57-14.16Q675.57-11.38 674.92-8.76 674.26-6.15 672.91-4.15 671.57-2.15 669.54-0.95 667.52 0.24 664.78 0.24L664.78 0.24Q663.32 0.24 661.95-0.05 660.58-0.34 659.51-0.85 658.44-1.37 657.73-1.98 657.02-2.59 656.87-3.27L656.87-3.27 656.87 10.84 650.92 10.84 650.92-27.54 656.24-27.54 656.87-24.76Q657.85-26.12 659.83-26.95 661.81-27.78 664.2-27.78L664.2-27.78Q665.81-27.78 667.47-27.34 669.13-26.9 670.57-25.88 672.01-24.85 673.18-23.19 674.35-21.53 674.99-19.19ZM662.83-4.35L662.83-4.35Q664.3-4.35 665.49-5.08 666.69-5.81 667.54-7.06 668.4-8.3 668.89-10.03 669.37-11.77 669.37-13.72L669.37-13.72Q669.37-15.63 668.93-17.33 668.49-19.04 667.69-20.36 666.88-21.68 665.74-22.46 664.59-23.24 663.07-23.24L663.07-23.24Q661.61-23.24 660.39-22.51 659.17-21.78 658.29-20.53 657.41-19.29 656.95-17.6 656.48-15.92 656.48-13.96L656.48-13.96Q656.48-12.01 656.9-10.28 657.31-8.54 658.14-7.23 658.97-5.91 660.15-5.13 661.32-4.35 662.83-4.35Z" opacity="1" transform="matrix(1,0,0,1,0,0)" fill="#c1c1c1" class="slogan-text-1" data-fill-palette-color="secondary" id="text-1"></path></svg></g></svg></g></svg></g></svg></g><g><svg viewBox="0 0 129.86922260323655 134.93621960758617" height="134.93621960758617" width="129.86922260323655"><g><svg xmlns="http://www.w3.org/2000/svg" xmlns:xlink="http://www.w3.org/1999/xlink" version="1.1" x="0" y="0" viewBox="10.703 8.200450152131745 56.400999999999996 58.60154984786826" enable-background="new 0 0 75 75" xml:space="preserve" height="134.93621960758617" width="129.86922260323655" class="icon-icon-0" data-fill-palette-color="accent" id="icon-0"><path fill="#c1c1c1" d="M67.104 33.365C67.104 40.344 61.498 46 54.582 46 54.04 46 53.507 45.961 52.981 45.894A8.69 8.69 0 0 1 45.878 49.571 8.7 8.7 0 0 1 41.948 48.633C40.212 51.64 37.151 53.638 33.664 53.638 29.588 53.638 26.094 50.91 24.617 47.033 23.61 47.293 22.539 47.433 21.429 47.433 15.505 47.433 10.703 43.436 10.703 38.505 10.703 34.819 13.386 31.656 17.213 30.293 15.275 28.67 14.095 26.531 14.095 24.186 14.095 19.492 18.814 15.624 24.903 15.075 25.098 12.637 26.322 10.421 28.431 9.173 32.087 7.01 37.015 8.576 39.437 12.67 39.576 12.904 39.702 13.142 39.818 13.382 41.585 11.736 44.063 10.71 46.808 10.71 52.173 10.71 56.523 14.62 56.523 19.441 56.523 19.927 56.477 20.403 56.392 20.867 62.451 21.751 67.104 27.009 67.104 33.365M24.831 55.352A2.82 2.82 0 1 0 24.831 60.992 2.82 2.82 0 0 0 24.83 55.352M20.038 62.856A1.973 1.973 0 1 0 20.038 66.802 1.973 1.973 0 0 0 20.038 62.856" data-fill-palette-color="accent"></path></svg></g></svg></g></svg></g><defs></defs></svg><rect width="395.52" height="98.70041043998057" fill="none" stroke="none" visibility="hidden"></rect></g></svg></g></svg>